<svg width="209" height="61" fill="none" xmlns="http://www.w3.org/2000/svg"><path d="M74 18c-2.744 0-5 2.215-5 4.977v35.718c0 .728.58 1.305 1.311 1.305h7.378c.732 0 1.311-.577 1.311-1.305V22.977A4.972 4.972 0 0074 18zm-26.61.023c-6.106 0-10.328 2.52-13.457 7.346-4.162-9.834-18.349-9.622-24.242-.577-.912-3.855-4.344-6.708-8.445-6.708H0v40.61C0 59.425.577 60 1.306 60h7.352c.729 0 1.306-.577 1.306-1.305V37.024c0-5.464 2.613-10.745 8.02-10.745 5.043 0 7.473 3.217 7.473 9.834v22.551c0 .729.577 1.306 1.306 1.306h7.352c.73 0 1.306-.577 1.306-1.306v-21.64c0-5.19 2.917-10.745 8.02-10.745 6.289 0 7.564 4.25 7.564 10.623v21.793c0 .728.578 1.305 1.307 1.305h7.382c.729 0 1.306-.577 1.306-1.305V34.778c-.03-10.138-3.615-16.755-13.61-16.755zm48.518 1.971c-1.716-2.329-5.086-2.692-7.283-.696-1.896 1.754-2.047 4.718-.512 6.805l9.901 13.337-9.961 13.457c-1.535 2.087-1.415 5.05.511 6.805 2.198 1.996 5.568 1.633 7.284-.696l13.904-18.78a1.322 1.322 0 000-1.542l-13.844-18.69z" fill="#061A54"/><path d="M127.081 19.994c1.717-2.329 5.092-2.692 7.292-.696 1.899 1.754 2.049 4.718.512 6.805l-9.914 13.337 9.975 13.457c1.537 2.087 1.416 5.05-.513 6.805-2.199 1.996-5.575 1.633-7.292-.696l-13.892-18.81a1.319 1.319 0 010-1.543l13.832-18.66z" fill="#1FBAED"/><path fill-rule="evenodd" clip-rule="evenodd" d="M168.577 51.855c.46-.151.982 0 1.289.394l3.284 4.305c.491.636.276 1.606-.491 1.94C162.468 63.102 140 63.617 140 39.88c0-22.887 23.973-26.707 33.212-16.612C176.987 27.36 178 32.666 178 38.153c0 2.455-1.995 4.426-4.481 4.426h-23.206c.891 12.126 13.015 11.065 18.264 9.276zm-8.84-25.858c-2.364 0-4.42.879-6.17 2.607-1.627 1.637-2.732 3.759-3.223 6.305h17.588c-.061-2.85-.798-5.032-2.148-6.548-1.443-1.576-3.469-2.364-6.047-2.364z" fill="#1FBAED"/><path d="M208.06 18.547c-1.755-.486-4.6-.364-5.508-.182-3.54 1.064-6.143 3.497-7.717 7.177-.544-4.257-4.176-7.542-8.564-7.542H185v40.692c0 .73.575 1.308 1.301 1.308h7.324c.726 0 1.301-.578 1.301-1.308V38.985c0-8.15 4.57-13.868 12.317-10.98.848.305 1.755-.303 1.755-1.216v-6.964c.031-.578-.393-1.125-.938-1.278z" fill="#1FBAED"/><path d="M69 5.5c0 3.049 2.476 5.5 5.516 5.5S80 8.517 80 5.5 77.524 0 74.484 0 69 2.483 69 5.5z" fill="#fff"/></svg>